<svg xmlns="http://www.w3.org/2000/svg" viewBox="0 0 130 16.05"><defs><style>.cls-1,.cls-2{fill:#fff;}.cls-1{fill-rule:evenodd;}</style></defs><title>logo-white</title><g id="Layer_2" data-name="Layer 2"><g id="Layer_1-2" data-name="Layer 1"><polygon class="cls-1" points="100.58 0.54 108.55 0.54 108.63 0.92 110.01 8.3 115.51 0.74 115.66 0.54 123.71 0.54 123.54 1.12 120.05 14.19 119.95 14.54 115.05 14.54 115.2 13.94 117.64 5.21 110.57 14.32 110.43 14.54 106.52 14.54 106.43 14.15 104.22 4.86 101.84 14.19 101.76 14.54 98.85 14.54 98.75 14.15 98.6 13.54 97.97 10.56 97.97 10.33 100.48 0.89 100.58 0.54"/><polygon class="cls-2" points="97.29 13.94 94.34 0.92 94.26 0.54 87.56 0.54 87.41 0.72 78.73 12.21 77.55 13.77 76.97 14.54 78.73 14.54 82.52 14.54 82.64 14.32 89.84 4.76 89.97 4.76 92.02 14.15 92.11 14.54 97.42 14.54 97.29 13.94"/><path class="cls-2" d="M80,1.42a2.86,2.86,0,0,0-1.3-1A5.59,5.59,0,0,0,77.12.14a83.8,83.8,0,0,0-9.77,0,3,3,0,0,0-2.07,1L62.43,4.9l-.72.95-.85,3.44c-.11.53-.2,1-.24,1.26-.31,2.07.49,3,1.81,3.51a7.29,7.29,0,0,0,1.91.32c.53.07,1.26.12,2.1.15,2,0,4.72,0,6.58-.12A11.4,11.4,0,0,0,75.36,14a2,2,0,0,0,.61-.24l.27-.39,2.49-3.26L79,9.8c.15-.49.3-.95.43-1.43h-5l-.12.35c-.45,1-.76,1.15-2.21,1.25s-2.72.11-4.22.08c-.43,0-2.07.07-2.18-.51a2.08,2.08,0,0,1,.08-1l.73-2.76a1.73,1.73,0,0,1,.69-1,2.94,2.94,0,0,1,1.53-.39,43.79,43.79,0,0,1,5.5,0c1.14.07,1.1.62.83,1.69h5a16.69,16.69,0,0,0,.47-2.49A3.32,3.32,0,0,0,80,1.42Z"/><polygon class="cls-2" points="62.43 0.42 58.78 0.42 58.63 0.62 51.45 10.18 51.35 10.18 49.2 0.42 43.91 0.42 43.82 0.42 43.91 0.84 43.97 1 46.93 14.04 47.02 14.42 53.73 14.42 53.88 14.24 62.43 2.9 63.72 1.18 64.31 0.42 62.43 0.42"/><path class="cls-2" d="M39.33,5.66a13,13,0,0,1-1,3.61,2.43,2.43,0,0,1-2,.93c-.51,0-1.18.07-1.91.07-1.31,0-2.84,0-4.22-.12-.35,0-.76-.23-.7-.65a14.9,14.9,0,0,1,1.2-4.14,1.3,1.3,0,0,1,.91-.65,16.49,16.49,0,0,1,2.82-.2,29.09,29.09,0,0,1,4.28.15c.6.09.7.42.62,1Zm4.59.57L42.64.54a4.34,4.34,0,0,0-.58-.09A60.56,60.56,0,0,0,34.45.2h0a31.75,31.75,0,0,0-4.1.23,5.63,5.63,0,0,0-2.23.79,4.2,4.2,0,0,0-1.5,1.64,13.12,13.12,0,0,0-.77,1.77c-.23.7-.53,1.58-.79,2.59-.12.49-.23.93-.34,1.35s-.2.93-.28,1.35a7.87,7.87,0,0,0-.2,1.81,2.52,2.52,0,0,0,.49,1.6,1.74,1.74,0,0,0,.22.23c.8.88,2.73,1,4,1,1.76.09,3.65.15,5.52.09a37.5,37.5,0,0,0,4.16-.3,5.16,5.16,0,0,0,2.21-.77A4.35,4.35,0,0,0,42.32,12a17.49,17.49,0,0,0,1.56-4.44l0-.19A2.61,2.61,0,0,0,44,6.69Z"/><polygon class="cls-2" points="17.14 0.37 11.87 7.43 10.21 0.37 2.13 0.37 0 8.44 5.02 8.44 6.42 4.42 8.32 11.83 14.3 11.83 19.48 4.85 16.43 16.05 21.58 16.05 25.72 0.37 17.14 0.37"/><path class="cls-1" d="M127.48.4A2.52,2.52,0,1,1,125,2.92,2.52,2.52,0,0,1,127.48.4Zm-.7,2.78V4.1a.13.13,0,0,0,0,.09.19.19,0,0,0,.1.05v.07H126V4.25a.21.21,0,0,0,.1-.05.14.14,0,0,0,0-.09V1.76a.14.14,0,0,0,0-.1.21.21,0,0,0-.1-.05V1.55h1.73a2.72,2.72,0,0,1,.5,0,.89.89,0,0,1,.32.13.65.65,0,0,1,.24.29.94.94,0,0,1,.07.37q0,.68-.75.79l.54.76a1.7,1.7,0,0,0,.21.26.27.27,0,0,0,.16.06v0a2.09,2.09,0,1,0-1.59.73,2.08,2.08,0,0,0,1.59-.73h-1V4.25q.1,0,.1-.07a.51.51,0,0,0-.1-.18l-.56-.82Zm0-.46H128a.45.45,0,0,0,.16-.05.31.31,0,0,0,.15-.3.31.31,0,0,0-.15-.3A.44.44,0,0,0,128,2h-1.23Z"/></g></g></svg>